<svg id="visual" viewBox="0 0 900 300" width="900" height="300" xmlns="http://www.w3.org/2000/svg" xmlns:xlink="http://www.w3.org/1999/xlink" version="1.1">
    <rect x="0" y="0" width="900" height="300" fill="#0e181f"></rect>
    <path d="M0 196L16.7 194.3C33.3 192.7 66.7 189.3 100 191C133.3 192.7 166.7 199.3 200 205.3C233.3 211.3 266.7 216.7 300 215C333.3 213.3 366.7 204.7 400 202.2C433.3 199.7 466.7 203.3 500 207.2C533.3 211 566.7 215 600 213C633.3 211 666.7 203 700 198.7C733.3 194.3 766.7 193.7 800 193.5C833.3 193.3 866.7 193.7 883.3 193.8L900 194L900 301L883.3 301C866.7 301 833.3 301 800 301C766.7 301 733.3 301 700 301C666.7 301 633.3 301 600 301C566.7 301 533.3 301 500 301C466.7 301 433.3 301 400 301C366.7 301 333.3 301 300 301C266.7 301 233.3 301 200 301C166.7 301 133.3 301 100 301C66.7 301 33.3 301 16.7 301L0 301Z" fill="#6c8acf"></path>
    <path d="M0 218L16.7 217.3C33.3 216.7 66.7 215.3 100 217.7C133.3 220 166.7 226 200 225C233.3 224 266.7 216 300 215.5C333.3 215 366.7 222 400 225.7C433.3 229.3 466.7 229.7 500 231.8C533.3 234 566.7 238 600 237.2C633.3 236.3 666.7 230.7 700 230.7C733.3 230.7 766.7 236.3 800 235.5C833.3 234.7 866.7 227.3 883.3 223.7L900 220L900 301L883.3 301C866.7 301 833.3 301 800 301C766.7 301 733.3 301 700 301C666.7 301 633.3 301 600 301C566.7 301 533.3 301 500 301C466.7 301 433.3 301 400 301C366.7 301 333.3 301 300 301C266.7 301 233.3 301 200 301C166.7 301 133.3 301 100 301C66.7 301 33.3 301 16.7 301L0 301Z" fill="#5368b0"></path>
    <path d="M0 258L16.7 257.8C33.3 257.7 66.7 257.3 100 253.7C133.3 250 166.7 243 200 240.7C233.3 238.3 266.7 240.7 300 240C333.3 239.3 366.7 235.7 400 235.8C433.3 236 466.7 240 500 244.2C533.3 248.3 566.7 252.7 600 255.5C633.3 258.3 666.7 259.7 700 260.2C733.3 260.7 766.7 260.3 800 258.3C833.3 256.3 866.7 252.7 883.3 250.8L900 249L900 301L883.3 301C866.7 301 833.3 301 800 301C766.7 301 733.3 301 700 301C666.7 301 633.3 301 600 301C566.7 301 533.3 301 500 301C466.7 301 433.3 301 400 301C366.7 301 333.3 301 300 301C266.7 301 233.3 301 200 301C166.7 301 133.3 301 100 301C66.7 301 33.3 301 16.7 301L0 301Z" fill="#3c4890"></path>
    <path d="M0 267L16.7 268.5C33.3 270 66.7 273 100 273.5C133.3 274 166.7 272 200 270.3C233.3 268.7 266.7 267.3 300 265.7C333.3 264 366.7 262 400 260.5C433.3 259 466.7 258 500 260.3C533.3 262.7 566.7 268.3 600 272.3C633.3 276.3 666.7 278.7 700 279.2C733.3 279.7 766.7 278.3 800 275.5C833.3 272.7 866.7 268.3 883.3 266.2L900 264L900 301L883.3 301C866.7 301 833.3 301 800 301C766.7 301 733.3 301 700 301C666.7 301 633.3 301 600 301C566.7 301 533.3 301 500 301C466.7 301 433.3 301 400 301C366.7 301 333.3 301 300 301C266.7 301 233.3 301 200 301C166.7 301 133.3 301 100 301C66.7 301 33.3 301 16.7 301L0 301Z" fill="#262a71"></path>
</svg>